<svg id="Layer_1" data-name="Layer 1" xmlns="http://www.w3.org/2000/svg" viewBox="0 0 142.23 83.74"><defs><style>.cls-1{fill:#1d1d1b;}</style></defs><title>cannabis-seeklogo</title><path class="cls-1" d="M120.78,139.05H106.52V88.65H146V99.74h-25.2Zm-1.08-28.29H143v11H119.7Z" transform="translate(-102.8 -70.72)"/><path class="cls-1" d="M152.74,139.05V88.65H167v39.1h24v11.3Z" transform="translate(-102.8 -70.72)"/><path class="cls-1" d="M220.93,140.06a30.92,30.92,0,0,1-11-1.91,26.32,26.32,0,0,1-8.78-5.4,24.46,24.46,0,0,1-5.83-8.31,27.85,27.85,0,0,1,0-21.17A24.5,24.5,0,0,1,201.13,95a26.64,26.64,0,0,1,8.78-5.4,33.26,33.26,0,0,1,23.51.51,23.47,23.47,0,0,1,9.18,7.09l-9.07,8.21a17.54,17.54,0,0,0-5.4-4.39,14,14,0,0,0-6.48-1.52,15.6,15.6,0,0,0-5.69,1,12.23,12.23,0,0,0-4.43,2.92,13.79,13.79,0,0,0-2.88,4.57,17.28,17.28,0,0,0,0,11.81,13.89,13.89,0,0,0,2.88,4.57,12.36,12.36,0,0,0,4.43,2.92,15.6,15.6,0,0,0,5.69,1,14,14,0,0,0,6.48-1.51,17.25,17.25,0,0,0,5.4-4.46l9.07,8.21a23.73,23.73,0,0,1-9.18,7.12A30.49,30.49,0,0,1,220.93,140.06Z" transform="translate(-102.8 -70.72)"/><path class="cls-1" d="M110.91,154.46a9.05,9.05,0,0,1-3.23-.56,7.73,7.73,0,0,1-2.57-1.57,7.35,7.35,0,0,1-1.7-2.43,8.11,8.11,0,0,1,0-6.17,7.23,7.23,0,0,1,1.71-2.43,7.93,7.93,0,0,1,2.6-1.57,9.35,9.35,0,0,1,3.29-.56,9.25,9.25,0,0,1,3.7.7,6.89,6.89,0,0,1,2.71,2l-2.65,2.39a5,5,0,0,0-1.62-1.24,5.15,5.15,0,0,0-3.67-.1,3.62,3.62,0,0,0-1.32.85,3.84,3.84,0,0,0-.85,1.33,4.59,4.59,0,0,0-.31,1.73,4.51,4.51,0,0,0,.31,1.7,3.75,3.75,0,0,0,.85,1.33,3.69,3.69,0,0,0,1.31.86,4.39,4.39,0,0,0,1.69.31,5.34,5.34,0,0,0,1.81-.31,5.8,5.8,0,0,0,1.78-1l2.33,2.92a9.8,9.8,0,0,1-2.93,1.39A11.56,11.56,0,0,1,110.91,154.46Zm2.48-2.39V146.5h3.69v6.09Z" transform="translate(-102.8 -70.72)"/><path class="cls-1" d="M119.75,154.17v-14.7h6.7a8.49,8.49,0,0,1,3.49.65,4.93,4.93,0,0,1,2.25,1.88,5.18,5.18,0,0,1,.79,2.88,5.11,5.11,0,0,1-.79,2.9,5,5,0,0,1-2.25,1.84,8.66,8.66,0,0,1-3.49.64H122l1.87-1.76v5.67Zm4.16-5.19L122,147.05h4.16a2.89,2.89,0,0,0,2-.57,2.25,2.25,0,0,0,0-3.16,2.84,2.84,0,0,0-2-.58H122l1.87-1.91Zm4.91,5.19-3.65-5.36h4.43l3.67,5.36Z" transform="translate(-102.8 -70.72)"/><path class="cls-1" d="M142.68,154.46a9,9,0,0,1-3.24-.57,7.45,7.45,0,0,1-4.31-4,7.5,7.5,0,0,1-.62-3.06,7.38,7.38,0,0,1,.62-3,7.66,7.66,0,0,1,1.71-2.42,7.56,7.56,0,0,1,2.59-1.61,9.58,9.58,0,0,1,6.51,0,7.89,7.89,0,0,1,2.58,1.59,7.5,7.5,0,0,1,1.71,2.42,7.41,7.41,0,0,1,.62,3,7.53,7.53,0,0,1-.61,3.08,7.15,7.15,0,0,1-1.71,2.43,8,8,0,0,1-2.59,1.59A9.08,9.08,0,0,1,142.68,154.46Zm0-3.44a4.1,4.1,0,0,0,1.57-.3,3.6,3.6,0,0,0,1.26-.85,4.26,4.26,0,0,0,.84-1.32,5.17,5.17,0,0,0,0-3.47,4.26,4.26,0,0,0-.84-1.32,3.74,3.74,0,0,0-1.26-.85,4.1,4.1,0,0,0-1.57-.29,4,4,0,0,0-1.56.29,3.68,3.68,0,0,0-1.27.85,3.64,3.64,0,0,0-.84,1.32,5.17,5.17,0,0,0,0,3.47,3.64,3.64,0,0,0,.84,1.32,3.55,3.55,0,0,0,1.27.85A4,4,0,0,0,142.68,151Z" transform="translate(-102.8 -70.72)"/><path class="cls-1" d="M156.16,154.17l-4.76-14.7h4.28l4,12.72h-2.16l4.22-12.72h3.82l4,12.72h-2.08l4.14-12.72h4l-4.77,14.7h-4.45L163,143.35h1.17l-3.5,10.82Z" transform="translate(-102.8 -70.72)"/><path class="cls-1" d="M188.67,154.46a13.43,13.43,0,0,1-3.5-.45,8.77,8.77,0,0,1-2.69-1.15l1.36-3.08a10,10,0,0,0,2.28,1,8.57,8.57,0,0,0,2.57.41,5.18,5.18,0,0,0,1.4-.15,1.57,1.57,0,0,0,.75-.42.91.91,0,0,0,.25-.65.88.88,0,0,0-.47-.77,4.4,4.4,0,0,0-1.2-.48c-.5-.13-1-.26-1.62-.38a17.89,17.89,0,0,1-1.77-.47,6.9,6.9,0,0,1-1.64-.78,3.69,3.69,0,0,1-1.19-1.26,3.85,3.85,0,0,1-.45-2,4.26,4.26,0,0,1,.71-2.38,5,5,0,0,1,2.17-1.72,8.86,8.86,0,0,1,3.61-.65,12.32,12.32,0,0,1,2.84.33,8.27,8.27,0,0,1,2.47,1l-1.26,3.07a8.9,8.9,0,0,0-2.08-.86,7.8,7.8,0,0,0-2-.27,4.38,4.38,0,0,0-1.39.18,1.61,1.61,0,0,0-.75.49,1,1,0,0,0-.24.63.9.9,0,0,0,.47.79,4.35,4.35,0,0,0,1.19.46l1.63.37a16.1,16.1,0,0,1,1.78.47,7.27,7.27,0,0,1,1.62.75,3.77,3.77,0,0,1,1.21,1.24,3.64,3.64,0,0,1,.46,1.92,4.18,4.18,0,0,1-.72,2.37,4.94,4.94,0,0,1-2.18,1.73A8.9,8.9,0,0,1,188.67,154.46Z" transform="translate(-102.8 -70.72)"/><path class="cls-1" d="M201.27,154.17h-4.16v-14.7h4.16Zm5.94-5.74H201V145h6.25Zm-.29-9h4.16v14.7h-4.16Z" transform="translate(-102.8 -70.72)"/><path class="cls-1" d="M221.43,154.46a9,9,0,0,1-3.24-.57,7.73,7.73,0,0,1-2.6-1.6,7.58,7.58,0,0,1-1.71-2.44,7.5,7.5,0,0,1-.62-3.06,7.38,7.38,0,0,1,.62-3,7.58,7.58,0,0,1,4.3-4,9,9,0,0,1,3.25-.57,9.08,9.08,0,0,1,3.26.57,7.89,7.89,0,0,1,2.58,1.59,7.5,7.5,0,0,1,1.71,2.42,7.41,7.41,0,0,1,.62,3,7.53,7.53,0,0,1-.61,3.08,7.44,7.44,0,0,1-1.71,2.43,8,8,0,0,1-2.59,1.59A9.08,9.08,0,0,1,221.43,154.46Zm0-3.44a4.1,4.1,0,0,0,1.57-.3,3.47,3.47,0,0,0,1.25-.85,4.11,4.11,0,0,0,.85-1.32,5.17,5.17,0,0,0,0-3.47,4.11,4.11,0,0,0-.85-1.32,3.6,3.6,0,0,0-1.25-.85,4.1,4.1,0,0,0-1.57-.29,4,4,0,0,0-1.56.29,3.68,3.68,0,0,0-1.27.85,3.64,3.64,0,0,0-.84,1.32,5.17,5.17,0,0,0,0,3.47,3.64,3.64,0,0,0,.84,1.32,3.55,3.55,0,0,0,1.27.85A4,4,0,0,0,221.43,151Z" transform="translate(-102.8 -70.72)"/><path class="cls-1" d="M231.81,154.17v-14.7h6.69a8.46,8.46,0,0,1,3.49.65,5,5,0,0,1,2.26,1.88,5.7,5.7,0,0,1,0,5.79,5.12,5.12,0,0,1-2.26,1.87,8.46,8.46,0,0,1-3.49.66h-4.41L236,148.5v5.67ZM236,149,234.09,147h4.16a3,3,0,0,0,2-.56,2,2,0,0,0,.65-1.59,2,2,0,0,0-.65-1.56,2.87,2.87,0,0,0-2-.58h-4.16l1.87-1.91Z" transform="translate(-102.8 -70.72)"/><path class="cls-1" d="M109.59,87.52V70.72h7.94a10.9,10.9,0,0,1,4.87,1,7.76,7.76,0,0,1,4.49,7.34,8.17,8.17,0,0,1-1.19,4.48,7.79,7.79,0,0,1-3.3,2.91,10.91,10.91,0,0,1-4.87,1Zm4.75-3.79h3a5.4,5.4,0,0,0,2.53-.56,3.94,3.94,0,0,0,1.67-1.59,4.94,4.94,0,0,0,.6-2.49,4.77,4.77,0,0,0-.6-2.46,4,4,0,0,0-1.67-1.57,5.4,5.4,0,0,0-2.53-.55h-3Z" transform="translate(-102.8 -70.72)"/><path class="cls-1" d="M134.09,83.82h8.79v3.7H129.41V70.72h13.15v3.69h-8.47Zm-.33-6.6h7.8v3.53h-7.8Z" transform="translate(-102.8 -70.72)"/><path class="cls-1" d="M145.54,87.52V70.72h4.75v13h8v3.77Z" transform="translate(-102.8 -70.72)"/><path class="cls-1" d="M160.18,87.52V70.72h4.75v16.8Z" transform="translate(-102.8 -70.72)"/><path class="cls-1" d="M173.4,87.52l-7.17-16.8h5.11l6.07,14.54h-3l6.19-14.54h4.7l-7.2,16.8Z" transform="translate(-102.8 -70.72)"/><path class="cls-1" d="M191,83.82h8.78v3.7H186.29V70.72h13.15v3.69H191Zm-.34-6.6h7.8v3.53h-7.8Z" transform="translate(-102.8 -70.72)"/><path class="cls-1" d="M202.42,87.52V70.72h7.66a9.88,9.88,0,0,1,4,.74,5.73,5.73,0,0,1,2.58,2.15,6,6,0,0,1,.9,3.3,5.87,5.87,0,0,1-.9,3.31,5.76,5.76,0,0,1-2.58,2.1,9.89,9.89,0,0,1-4,.73h-5l2.13-2v6.48Zm4.75-5.93L205,79.38h4.75a3.28,3.28,0,0,0,2.23-.65,2.57,2.57,0,0,0,0-3.61,3.28,3.28,0,0,0-2.23-.66H205l2.13-2.18Zm5.62,5.93-4.18-6.12h5.06l4.21,6.12Z" transform="translate(-102.8 -70.72)"/><path class="cls-1" d="M224.16,87.52V80.41l1.11,2.86-7.54-12.55h5l5.4,9.09h-2.88l5.45-9.09h4.61l-7.47,12.55,1-2.86v7.11Z" transform="translate(-102.8 -70.72)"/></svg>